# xmcd
#
# Track frame offsets:
#	150
#	20325
#	34917
#	47962
#	69445
#	89885
#	112787
#	138047
#	157895
#
# Disc length: 2330 seconds
#
# Revision: 1
# Processed by: cddbd v1.5.2PL0 Copyright (c) Steve Scherf et al.
# Submitted via: audiograbber 1.83.01
#
DISCID=6e091809
DTITLE=Luiza Maria - Tarântula
DYEAR=1993
DGENRE=MPB
TTITLE0=Tarântura
TTITLE1=Tubarão
TTITLE2=Cant Buy Me Love
TTITLE3=Canção Ereta
TTITLE4=Vampiragem
TTITLE5=Cica
TTITLE6=Água e Cloro
TTITLE7=Madrepérola
TTITLE8=Último Desejo
EXTD=
EXTT0=
EXTT1=
EXTT2=
EXTT3=
EXTT4=
EXTT5=
EXTT6=
EXTT7=
EXTT8=
PLAYORDER=
